<?xml version="1.0" encoding="UTF-8" standalone="no"?>
<svg
   width="11.005474"
   height="14.294306"
   viewBox="0 0 11.005474 14.294306"
   version="1.1"
   id="svg18"
   sodipodi:docname="72fcbd65c7874208201454392d0aec3a.svg"
   xmlns:inkscape="http://www.inkscape.org/namespaces/inkscape"
   xmlns:sodipodi="http://sodipodi.sourceforge.net/DTD/sodipodi-0.dtd"
   xmlns="http://www.w3.org/2000/svg"
   xmlns:svg="http://www.w3.org/2000/svg">
  <defs
     id="defs22" />
  <sodipodi:namedview
     id="namedview20"
     pagecolor="#ffffff"
     bordercolor="#666666"
     borderopacity="1.0"
     inkscape:pageshadow="2"
     inkscape:pageopacity="0.0"
     inkscape:pagecheckerboard="0" />
  <g
     fill="none"
     fill-rule="evenodd"
     id="g16"
     transform="translate(-0.1872495,1.5302536e-4)">
    <g
       fill-rule="nonzero"
       id="g14">
      <g
         id="g12">
        <g
           id="g10">
          <g
             id="g8">
            <g
               id="g6">
              <path
                 fill="#ffb124"
                 d="M 10.735,5.617 H 6.207 L 7.613,0.357 C 7.691,0.066 7.314,-0.128 7.116,0.101 L 0.088,8.209 c -0.16,0.184 -0.027,0.468 0.219,0.468 h 4.528 l -1.406,5.26 c -0.078,0.291 0.298,0.485 0.497,0.256 l 7.028,-8.108 c 0.16,-0.184 0.027,-0.468 -0.22,-0.468 z"
                 transform="translate(0.169)"
                 id="path2" />
              <path
                 fill="#fdd835"
                 d="M 6.207,5.617 H 5.652 C 5.461,5.617 5.322,5.438 5.37,5.256 L 6.584,0.714 7.116,0.101 c 0.198,-0.23 0.575,-0.035 0.497,0.257 z m 4.747,0.468 -7.028,8.108 C 3.727,14.423 3.35,14.228 3.429,13.936 L 3.524,13.58 10.02,6.085 C 10.18,5.901 10.047,5.617 9.802,5.617 h 0.933 c 0.246,0 0.378,0.284 0.219,0.468 z"
                 transform="translate(0.169)"
                 id="path4" />
            </g>
          </g>
        </g>
      </g>
    </g>
  </g>
</svg>
