<?xml version="1.0" encoding="UTF-8" standalone="no"?>
<svg
   width="88.667"
   height="28"
   viewBox="0 0 88.667 28"
   version="1.1"
   id="svg15"
   sodipodi:docname="8d43482ca990dc32be846e2346e80607.svg"
   xmlns:inkscape="http://www.inkscape.org/namespaces/inkscape"
   xmlns:sodipodi="http://sodipodi.sourceforge.net/DTD/sodipodi-0.dtd"
   xmlns="http://www.w3.org/2000/svg"
   xmlns:svg="http://www.w3.org/2000/svg">
  <sodipodi:namedview
     id="namedview17"
     pagecolor="#ffffff"
     bordercolor="#666666"
     borderopacity="1.0"
     inkscape:pageshadow="2"
     inkscape:pageopacity="0.0"
     inkscape:pagecheckerboard="0" />
  <defs
     id="defs7">
    <linearGradient
       id="prefix__a"
       x1="0"
       x2="41.775257"
       y1="22.965747"
       y2="25.530752"
       gradientTransform="scale(2.0186688,0.49537596)"
       gradientUnits="userSpaceOnUse">
      <stop
         offset="0%"
         stop-color="#FF821D"
         id="stop2" />
      <stop
         offset="100%"
         stop-color="#FF5B18"
         id="stop4" />
    </linearGradient>
  </defs>
  <g
     fill="none"
     fill-rule="evenodd"
     id="g13">
    <path
       d="M 0,0 H 88.667 V 28 H 0 Z"
       id="path9" />
    <path
       fill="url(#prefix__a)"
       d="m 8.377,22.562 c 2.56,0 4.798,-0.746 6.513,-1.74 l 2.486,-8.775 h -7.98 l -0.92,3.53 h 3.356 l -0.696,2.337 c -0.596,0.273 -1.342,0.472 -2.311,0.472 -2.138,0 -3.903,-1.268 -3.903,-3.704 0,-3.206 2.411,-5.916 5.916,-5.916 1.864,0 3.281,0.77 4.3,1.79 L 18.37,7.424 C 17.177,5.883 14.641,4.466 11.161,4.466 4.524,4.466 0,9.338 0,14.88 c 0,5.344 4.226,7.681 8.377,7.681 z M 24.808,7.548 25.753,4.068 H 20.83 l -0.945,3.48 h 4.922 z M 20.756,22.214 24.361,8.766 H 19.638 L 16.033,22.214 Z M 33.981,7.498 38.48,4.341 34.18,2.924 30.351,7.498 Z m 41.297,-1.462 4.5,-3.157 -4.301,-1.417 -3.828,4.574 h 3.63 z M 26.474,22.488 c 1.566,0 2.734,-0.647 3.877,-1.716 l -0.373,1.442 h 4.649 l 1.989,-7.408 c 0.174,-0.67 0.273,-1.317 0.273,-1.938 0,-2.685 -1.964,-4.276 -5.99,-4.276 -1.94,0 -3.879,0.323 -5.295,0.82 l 0.67,3.43 c 0.945,-0.372 2.362,-0.67 3.63,-0.67 1.64,0 2.312,0.571 2.312,1.441 0,0.323 -0.075,0.597 -0.125,0.82 l -0.05,0.175 c -1.068,-0.324 -2.187,-0.522 -3.405,-0.522 -3.555,0 -5.916,1.79 -5.916,4.747 0,2.238 1.541,3.655 3.754,3.655 z m 2.187,-2.909 c -0.795,0 -1.342,-0.472 -1.342,-1.243 0,-1.218 0.97,-1.939 2.46,-1.939 0.647,0 1.244,0.125 1.766,0.299 l -0.125,0.447 c -0.373,1.367 -1.541,2.436 -2.759,2.436 z m 20.781,2.933 c 4.325,0 7.408,-2.436 7.408,-6.015 0,-2.61 -1.84,-3.828 -4.524,-4.847 -2.387,-0.945 -2.909,-1.194 -2.909,-1.89 0,-0.696 0.721,-1.243 1.89,-1.243 1.764,0 3.28,0.771 4.598,1.914 l 2.983,-3.33 C 57.223,5.51 54.811,4.515 51.754,4.515 c -4.25,0 -7.383,2.461 -7.383,5.916 0,2.56 1.765,3.754 4.524,4.798 2.436,0.945 2.909,1.293 2.909,1.964 0,0.795 -0.82,1.292 -1.964,1.292 -1.914,0 -3.68,-0.795 -5.37,-2.361 l -3.107,3.207 c 1.865,2.013 4.674,3.181 8.08,3.181 z M 64.755,7.498 67.24,5.982 68.93,7.498 h 2.81 L 69.65,3.422 h -3.828 l -4.275,4.076 h 3.207 z m -0.697,15.04 c 4.525,0 7.93,-3.754 7.93,-7.831 0,-3.53 -2.486,-6.24 -6.612,-6.24 -4.5,0 -7.905,3.754 -7.905,7.806 0,3.555 2.486,6.264 6.587,6.264 z m 0.274,-3.928 c -1.392,0 -2.337,-0.97 -2.337,-2.51 0,-1.741 1.268,-3.705 3.132,-3.705 1.392,0 2.337,0.97 2.337,2.486 0,1.765 -1.268,3.729 -3.132,3.729 z m 14.144,3.927 c 2.685,0 4.375,-1.044 5.742,-2.635 l -2.883,-2.51 c -0.82,0.82 -1.542,1.243 -2.536,1.243 -1.168,0 -2.063,-0.87 -2.063,-2.238 0,-2.038 1.442,-4.002 3.231,-4.002 1.219,0 1.865,0.647 2.312,1.69 l 3.704,-1.913 c -0.72,-2.064 -2.585,-3.68 -5.717,-3.68 -4.475,0 -8.079,3.63 -8.079,8.154 0,3.63 2.66,5.891 6.289,5.891 z"
       id="path11"
       style="fill:url(#prefix__a)" />
  </g>
</svg>
