<?xml version="1.0" encoding="UTF-8" standalone="no"?>
<svg xmlns="http://www.w3.org/2000/svg" viewBox="0 0 47 13" fill="none">
<path fill-rule="evenodd" clip-rule="evenodd" d="M4.50784 12.141C5.88561 12.141 7.08948 11.7397 8.01245 11.2047L9.35009 6.48283H5.05627L4.56135 8.38227H6.36716L5.99262 9.63965C5.67159 9.78679 5.27029 9.89381 4.74862 9.89381C3.59825 9.89381 2.64852 9.21161 2.64852 7.90072C2.64852 6.17517 3.94603 4.71715 5.8321 4.71715C6.83533 4.71715 7.59779 5.13181 8.14622 5.68024L9.88515 3.99482C9.24308 3.16548 7.87869 2.40303 6.006 2.40303C2.4345 2.40303 0 5.0248 0 8.00774C0 10.8837 2.27399 12.141 4.50784 12.141ZM13.3496 4.0617L13.8579 2.18901H11.2094L10.7011 4.0617H13.3496ZM11.1693 11.9538L13.1088 4.71715H10.5673L8.62776 11.9538H11.1693ZM18.2855 4.03495L20.7066 2.33615L18.3925 1.5737L16.3326 4.03495H18.2855ZM40.5084 3.2481L42.9295 1.5493L40.6154 0.78685L38.5555 3.2481H40.5084ZM14.2458 12.1009C15.0886 12.1009 15.7172 11.7531 16.3326 11.1779L16.1319 11.9538H18.6333L19.7034 7.96761C19.797 7.60644 19.8505 7.25866 19.8505 6.92425C19.8505 5.4796 18.7938 4.62351 16.6268 4.62351C15.5835 4.62351 14.5401 4.7974 13.7777 5.06493L14.1388 6.91087C14.6471 6.71023 15.4096 6.54971 16.0918 6.54971C16.9746 6.54971 17.3358 6.85737 17.3358 7.32554C17.3358 7.49943 17.2957 7.64657 17.2689 7.76696L17.2422 7.8606C16.667 7.6867 16.065 7.57969 15.4096 7.57969C13.4968 7.57969 12.226 8.54279 12.226 10.1346C12.226 11.3385 13.0553 12.1009 14.2458 12.1009ZM15.423 10.5359C14.9949 10.5359 14.7006 10.2817 14.7006 9.86705C14.7006 9.21161 15.2223 8.82369 16.0249 8.82369C16.3727 8.82369 16.6937 8.89058 16.9746 8.98421L16.9077 9.22499C16.7071 9.96069 16.0784 10.5359 15.423 10.5359ZM26.6056 12.1143C28.9331 12.1143 30.5918 10.8034 30.5918 8.8772C30.5918 7.47268 29.6019 6.81724 28.1573 6.26881C26.8732 5.7605 26.5923 5.62674 26.5923 5.2522C26.5923 4.87766 26.9802 4.58338 27.6089 4.58338C28.5586 4.58338 29.3745 4.99805 30.0835 5.61336L31.6887 3.82093C30.7924 2.96484 29.4949 2.42978 27.8496 2.42978C25.5623 2.42978 23.8768 3.75405 23.8768 5.61336C23.8768 6.99113 24.8266 7.6332 26.3113 8.19501C27.6222 8.70331 27.8764 8.89058 27.8764 9.25174C27.8764 9.67978 27.435 9.94731 26.8197 9.94731C25.7897 9.94731 24.8399 9.51927 23.9304 8.67655L22.2583 10.4021C23.2615 11.4856 24.7731 12.1143 26.6056 12.1143ZM34.8455 4.03495L36.1831 3.21899L37.0927 4.03495H38.6042L37.4806 1.84122H35.4207L33.1199 4.03495H34.8455ZM34.4709 12.1277C36.9054 12.1277 38.738 10.1078 38.738 7.9141C38.738 6.01466 37.4004 4.55663 35.1799 4.55663C32.7588 4.55663 30.9262 6.57646 30.9262 8.75681C30.9262 10.6696 32.2638 12.1277 34.4709 12.1277ZM34.6181 10.0142C33.869 10.0142 33.3607 9.49251 33.3607 8.66318C33.3607 7.72683 34.0429 6.6701 35.0461 6.6701C35.7952 6.6701 36.3035 7.19178 36.3035 8.00774C36.3035 8.95746 35.6213 10.0142 34.6181 10.0142ZM42.2292 12.1277C43.6739 12.1277 44.5835 11.5659 45.3192 10.7098L43.7675 9.35875C43.3261 9.80017 42.9382 10.0276 42.4031 10.0276C41.7744 10.0276 41.2929 9.5594 41.2929 8.82369C41.2929 7.72683 42.0687 6.6701 43.0318 6.6701C43.6873 6.6701 44.035 7.01788 44.2758 7.57969L46.2689 6.54971C45.881 5.43947 44.8778 4.57 43.1923 4.57C40.7846 4.57 38.845 6.52296 38.845 8.95746C38.845 10.9104 40.2763 12.1277 42.2292 12.1277Z" fill="white"/>
</svg>