<?xml version="1.0" encoding="UTF-8" standalone="no"?>
<svg xmlns="http://www.w3.org/2000/svg" viewBox="0 0 61 16" fill="none">
<path fill-rule="evenodd" clip-rule="evenodd" d="M15.1379 4.03494L16.4755 3.21898L17.3851 4.03494H18.8967L17.773 1.84122H15.7131L13.4123 4.03494H15.1379ZM3.80809 11.9538L4.75782 8.39565H8.06178L7.09868 11.9538H9.70708L12.2218 2.5903H9.61344L8.6771 6.09491H5.37313L6.32285 2.5903H3.71446L1.1997 11.9538H3.80809ZM14.7633 12.1277C17.1979 12.1277 19.0304 10.1078 19.0304 7.91409C19.0304 6.01465 17.6928 4.55662 15.4723 4.55662C13.0512 4.55662 11.2186 6.57646 11.2186 8.75681C11.2186 10.6696 12.5562 12.1277 14.7633 12.1277ZM14.9105 10.0142C14.1614 10.0142 13.6531 9.49251 13.6531 8.66317C13.6531 7.72682 14.3353 6.67009 15.3385 6.67009C16.0876 6.67009 16.5959 7.19177 16.5959 8.00773C16.5959 8.95745 15.9137 10.0142 14.9105 10.0142ZM21.0235 11.9538L22.0535 8.12812C22.2809 7.29878 22.6955 6.81723 23.3777 6.81723C23.8994 6.81723 24.1536 7.09813 24.1536 7.57968C24.1536 7.7402 24.1134 7.98098 24.0599 8.16824L23.0433 11.9538H25.5848L26.6148 8.12812C26.8422 7.29878 27.2569 6.81723 27.9391 6.81723C28.4741 6.81723 28.7149 7.09813 28.7149 7.57968C28.7149 7.7402 28.6748 7.98098 28.6213 8.16824L27.618 11.9538H30.1462L31.2029 8.0211C31.3233 7.56631 31.4169 7.09813 31.4169 6.71022C31.4169 5.38596 30.6545 4.55662 29.2767 4.55662C28.22 4.55662 27.3371 5.03817 26.6549 5.814C26.3874 5.06492 25.7587 4.55662 24.7689 4.55662C23.9128 4.55662 23.244 5.01142 22.749 5.51972L22.9631 4.71714H20.4216L18.482 11.9538H21.0235ZM37.9446 6.56308L36.5 11.9538H33.9183L36.4331 2.5903H38.8542L41.2753 7.79371L42.6799 2.5903H45.2615L42.7467 11.9538H40.4728L37.9446 6.56308ZM47.9769 11.1779C47.3616 11.7531 46.7329 12.1009 45.8902 12.1009C44.6997 12.1009 43.8704 11.3385 43.8704 10.1346C43.8704 8.54279 45.1411 7.57969 47.054 7.57969C47.7094 7.57969 48.3113 7.6867 48.8865 7.86059L48.9133 7.76696L48.9247 7.71679C48.9501 7.60639 48.9801 7.47598 48.9801 7.32553C48.9801 6.85736 48.619 6.5497 47.7361 6.5497C47.054 6.5497 46.2915 6.71022 45.7832 6.91087L45.422 5.06493C46.1845 4.7974 47.2278 4.62351 48.2712 4.62351C50.4382 4.62351 51.4949 5.47959 51.4949 6.92424C51.4949 7.25865 51.4414 7.60644 51.3478 7.9676L50.2777 11.9538H47.7763L47.9769 11.1779ZM46.345 9.86705C46.345 10.2817 46.6393 10.5359 47.0673 10.5359C47.7228 10.5359 48.3515 9.96068 48.5521 9.22498L48.619 8.98421C48.3381 8.89057 48.0171 8.82369 47.6693 8.82369C46.8667 8.82369 46.345 9.21161 46.345 9.86705ZM55.374 11.9136C54.3307 13.5456 53.381 14.1341 51.9631 14.1341C51.1203 14.1341 50.5318 13.9335 50.0369 13.6124L51.1739 11.7531C51.5083 11.9939 51.8561 12.1143 52.1771 12.1143C52.4179 12.1143 52.5918 12.0608 52.8058 11.8468L51.8694 4.71714H54.4511L54.7454 9.06446L57.1799 4.71714H59.8551L55.374 11.9136Z" fill="white"/>
</svg>