<?xml version="1.0" encoding="UTF-8" standalone="no"?>
<svg
   width="112"
   height="28"
   viewBox="0 0 112 28"
   version="1.1"
   id="svg15"
   sodipodi:docname="238d8e761bd864c5ca6d24cb7c62b043.svg"
   xmlns:inkscape="http://www.inkscape.org/namespaces/inkscape"
   xmlns:sodipodi="http://sodipodi.sourceforge.net/DTD/sodipodi-0.dtd"
   xmlns="http://www.w3.org/2000/svg"
   xmlns:svg="http://www.w3.org/2000/svg">
  <sodipodi:namedview
     id="namedview17"
     pagecolor="#ffffff"
     bordercolor="#666666"
     borderopacity="1.0"
     inkscape:pageshadow="2"
     inkscape:pageopacity="0.0"
     inkscape:pagecheckerboard="0" />
  <defs
     id="defs7">
    <linearGradient
       id="prefix__a"
       x1="0.39873925"
       x2="49.339748"
       y1="31.329204"
       y2="33.520816"
       gradientTransform="scale(2.1843849,0.45779478)"
       gradientUnits="userSpaceOnUse">
      <stop
         offset="0%"
         stop-color="#FF821D"
         id="stop2" />
      <stop
         offset="100%"
         stop-color="#FF5B18"
         id="stop4" />
    </linearGradient>
  </defs>
  <g
     fill="none"
     fill-rule="evenodd"
     id="g13"
     transform="translate(-0.889)">
    <path
       fill="url(#prefix__a)"
       d="m 99.83,8.766 0.547,8.079 4.524,-8.079 h 4.971 l -8.327,13.374 c -1.939,3.032 -3.704,4.126 -6.339,4.126 -1.566,0 -2.66,-0.373 -3.58,-0.97 l 2.114,-3.455 c 0.621,0.448 1.268,0.671 1.864,0.671 0.448,0 0.77,-0.1 1.168,-0.497 L 95.032,8.766 Z M 27.394,8.468 c 4.127,0 6.613,2.71 6.613,6.239 0,4.077 -3.406,7.83 -7.93,7.83 -4.102,0 -6.587,-2.71 -6.587,-6.264 0,-4.052 3.405,-7.805 7.904,-7.805 z m 60.952,0.124 c 4.027,0 5.99,1.59 5.99,4.276 0,0.517 -0.069,1.053 -0.192,1.605 l -0.081,0.333 -1.989,7.408 h -4.648 l 0.373,-1.442 c -1.144,1.07 -2.312,1.716 -3.878,1.716 -2.212,0 -3.754,-1.417 -3.754,-3.655 0,-2.958 2.362,-4.747 5.917,-4.747 1.065,0 2.055,0.152 3.002,0.406 l 0.403,0.116 0.05,-0.174 c 0.05,-0.224 0.124,-0.498 0.124,-0.82 0,-0.87 -0.671,-1.442 -2.312,-1.442 -1.162,0 -2.45,0.25 -3.383,0.58 l -0.246,0.09 -0.671,-3.43 c 1.417,-0.497 3.356,-0.82 5.295,-0.82 z M 10.392,4.814 8.627,11.326 h 6.14 l 1.74,-6.512 h 4.847 l -4.673,17.4 h -4.848 l 1.79,-6.612 H 7.483 L 5.718,22.214 H 0.871 l 4.673,-17.4 z m 42.656,3.654 c 2.56,0 3.977,1.54 3.977,4.002 0,0.72 -0.174,1.59 -0.398,2.436 l -1.964,7.308 h -4.698 l 1.865,-7.035 c 0.099,-0.348 0.174,-0.795 0.174,-1.093 0,-0.895 -0.448,-1.417 -1.442,-1.417 -1.268,0 -2.039,0.895 -2.461,2.436 l -1.914,7.11 h -4.723 l 1.89,-7.036 c 0.098,-0.348 0.173,-0.795 0.173,-1.093 0,-0.895 -0.472,-1.417 -1.442,-1.417 -1.267,0 -2.038,0.895 -2.46,2.436 l -1.915,7.11 H 32.987 L 36.592,8.766 h 4.723 l -0.398,1.491 c 0.92,-0.944 2.163,-1.79 3.754,-1.79 1.839,0 3.007,0.945 3.504,2.337 1.268,-1.441 2.909,-2.336 4.873,-2.336 z m 17.798,-3.654 4.499,9.67 2.61,-9.67 h 4.798 l -4.674,17.4 H 73.854 L 69.155,12.196 66.471,22.214 h -4.798 l 4.673,-17.4 z m 16.381,11.583 c -1.491,0 -2.46,0.721 -2.46,1.94 0,0.77 0.546,1.242 1.341,1.242 1.166,0 2.285,-0.978 2.707,-2.26 l 0.053,-0.176 0.124,-0.447 C 88.47,16.522 87.873,16.397 87.227,16.397 Z M 27.146,12.395 c -1.865,0 -3.132,1.964 -3.132,3.704 0,1.541 0.944,2.51 2.336,2.51 1.865,0 3.132,-1.963 3.132,-3.728 0,-1.516 -0.944,-2.486 -2.336,-2.486 z m 4.524,-8.973 2.088,4.076 h -2.809 l -1.69,-1.516 -2.486,1.516 h -3.207 l 4.276,-4.076 z"
       transform="translate(0.889)"
       id="path9"
       style="fill:url(#prefix__a)" />
    <path
       d="M 0,0 H 112 V 28 H 0 Z"
       transform="translate(0.889)"
       id="path11" />
  </g>
</svg>
